# xmcd CD database file
#
# Track frame offsets:
#	150
#	25235
#	41832
#	56697
#	88615
#	106062
#	125970
#	144335
#	164140
#	180697
#
# Disc length: 2714 seconds
#
# Revision: 0
# Processed by: cddbd v1.4PL0 Copyright (c) Steve Scherf et al.
# Submitted via: NeoAudio 9.9.9
#
DISCID=8e0a980a
DTITLE=Monnette Sudler - Other Side of Gemini
DYEAR=1990
DGENRE=Jazz
TTITLE0=Other Side of Gemini
TTITLE1=Born Again
TTITLE2=Fire One
TTITLE3=Goin' Home
TTITLE4=D'Jean
TTITLE5=Hideaway
TTITLE6=De Real Thang
TTITLE7=The Sweetest Sound
TTITLE8=So You Wanna Be A Musician
TTITLE9=Follow Your Dreams
EXTD=YEAR: 1990
EXTT0=
EXTT1=
EXTT2=
EXTT3=
EXTT4=
EXTT5=
EXTT6=
EXTT7=
EXTT8=
EXTT9=
PLAYORDER=
